<svg xmlns="http://www.w3.org/2000/svg" viewBox="0 0 341.33 388.05"><defs><style>.cls-1{fill:#0e0e0e;}.cls-2{fill:#0c0c0c;}.cls-3{fill:#141314;}</style></defs><title>01MVP</title><g id="图层_2" data-name="图层 2"><g id="图层_1-2" data-name="图层 1"><path class="cls-1" d="M166.32,0C224-.8,281.74,25.22,315.18,72.92c17.11,24.4,22.5,60,24.65,89,2.58,34.71,2.45,72.7-5.44,106.63-13.74,59.1-62.28,103.37-121.24,115.56-27,5.59-55.27,5.12-82.27-.43C74.16,372,21.14,329.3,6.14,271.92a118.84,118.84,0,0,1-3.89-28.64c-.09-8.8,1.47-19.6,8.2-26,10.2-9.65,28.14-3.65,33.35,8.33,4.51,10.36,3.8,22.65,6.55,33.61a111.26,111.26,0,0,0,36.71,57.88c43.43,36.47,109.7,33.48,157,6.24,26.56-15.31,43.28-41.45,48.08-71.55,5.23-32.83,3.14-66.18,1.52-99.21-1.31-26.78-9.84-53.71-30.41-72.11-42.34-37.87-110.5-47.94-159.91-18-28.56,17.34-44.4,45.82-51.72,77.73-3.71,16.18-2.1,38.9-14.15,51.69-6.83,7.25-17.39,6.92-25.28,1.6C1.89,186.64,0,173.6,0,162,0,102.91,35.22,46.92,87.25,19.55,111.54,6.78,138.94.41,166.32,0Z"/><path class="cls-2" d="M170.44,73.19c25,.35,52.23,7.16,71.88,23.26,17.35,14.22,24.33,34.62,25.95,56.4,1.31,17.72,1.56,35.84,1.71,53.6.16,18.22-.86,36.79-6.6,54.21-13,39.63-50,54.81-89.08,55.32-22.51.29-46.05-3.75-66.05-14.45C79,285.89,73.85,256.26,71.93,225.85c-1.44-22.61-1.65-45.28-1.75-67.94C70.09,139,76,119.67,88.1,105,106.45,82.82,138.59,72.75,170.44,73.19Zm-41,54.42a48,48,0,0,0-5,4.82c-16.11,18.1-15.27,45.81-14.34,68.44s2.32,50.17,23.12,64.38c16.2,11.06,37.36,13.27,56.15,8.74,32.92-7.92,40.6-35.87,40-66.33-.41-20.35,2.36-42.31-5.24-61.72-9.43-24-36.19-32.49-60.31-31.32C151.6,115.21,139,119.56,129.46,127.61Z"/><path class="cls-3" d="M188.12,138.46,189.47,225c2.61-.54,5.31-1.09,7.92-.58a7.85,7.85,0,0,1,4.63,2.67c1.31,1.66,1.19,3.78,1.26,5.79a49.08,49.08,0,0,1-1.74,14.72,4.68,4.68,0,0,1-1.65,2.85,4.81,4.81,0,0,1-2.5.54q-29.94,1.05-59.92.11-.69-12.19-.23-24.42a3.53,3.53,0,0,1,.37-1.73c.63-1,2-1.07,3.19-1.05l9.91.19a2.79,2.79,0,0,0,1.89-.41,2.86,2.86,0,0,0,.71-2.24q.38-23.69-.23-47.39a4.69,4.69,0,0,0-1-3.33c-.92-.9-2.38-.88-3.66-.8l-8.88.53a1.46,1.46,0,0,1-1.9-1.63,103.42,103.42,0,0,1,.48-21,4.69,4.69,0,0,1,.79-2.46,4.77,4.77,0,0,1,2.61-1.32,175,175,0,0,1,46.56-5.9Z"/></g></g></svg>