<svg xmlns="http://www.w3.org/2000/svg" viewBox="0 0 385.46 142.95"><defs><style>.cls-1{fill:#0e0e0e;}.cls-2{fill:#0c0c0c;}.cls-3{fill:#141314;}</style></defs><title>01MVPRight</title><g id="图层_2" data-name="图层 2"><g id="图层_1-2" data-name="图层 1"><path class="cls-1" d="M61.27,0c21.24-.3,42.51,9.28,54.83,26.85,6.3,9,8.29,22.09,9.08,32.77.95,12.79.9,26.79-2,39.28-5.06,21.77-23,38.08-44.66,42.57a75.28,75.28,0,0,1-30.31-.16C27.32,137,7.79,121.3,2.26,100.17A43.74,43.74,0,0,1,.83,89.62c0-3.25.54-7.22,3-9.57,3.76-3.56,10.36-1.35,12.29,3.07,1.66,3.81,1.39,8.34,2.41,12.38a41,41,0,0,0,13.52,21.32c16,13.43,40.41,12.33,57.82,2.3,9.79-5.64,15.94-15.27,17.71-26.36,1.93-12.09,1.16-24.38.56-36.54-.48-9.87-3.62-19.79-11.2-26.57C81.36,15.7,56.26,12,38.06,23,27.54,29.43,21.7,39.92,19,51.67c-1.36,6-.77,14.33-5.21,19-2.51,2.67-6.41,2.54-9.31.58C.7,68.75,0,64,0,59.67,0,37.91,13,17.28,32.14,7.2A64.72,64.72,0,0,1,61.27,0Z"/><path class="cls-2" d="M62.79,27C72,27.09,82,29.6,89.26,35.53c6.39,5.24,9,12.75,9.56,20.77.48,6.53.58,13.21.63,19.75.06,6.71-.32,13.55-2.43,20-4.81,14.6-18.41,20.19-32.81,20.38-8.3.1-17-1.38-24.34-5.33C29.11,105.31,27.21,94.4,26.5,83.2c-.53-8.33-.61-16.69-.65-25a30.55,30.55,0,0,1,6.6-19.49C39.21,30.51,51.05,26.8,62.79,27ZM47.69,47a17,17,0,0,0-1.83,1.77C39.93,55.45,40.24,65.66,40.58,74s.85,18.48,8.52,23.72c6,4.07,13.76,4.89,20.68,3.22,12.13-2.92,15-13.22,14.73-24.44-.15-7.49.87-15.58-1.93-22.73-3.48-8.86-13.34-12-22.22-11.54A21.48,21.48,0,0,0,47.69,47Z"/><path class="cls-3" d="M69.3,51l.5,31.89a7.37,7.37,0,0,1,2.91-.21,2.89,2.89,0,0,1,1.71,1,3.41,3.41,0,0,1,.46,2.13,18,18,0,0,1-.64,5.42,1.76,1.76,0,0,1-.61,1.06,1.88,1.88,0,0,1-.92.2q-11,.38-22.07,0-.26-4.48-.09-9a1.39,1.39,0,0,1,.14-.64c.23-.36.74-.39,1.18-.38l3.65.07a.79.79,0,0,0,.95-1q.15-8.73-.08-17.46a1.3,1.3,0,0,0-1.7-1.52l-3.27.19a.69.69,0,0,1-.53-.1.68.68,0,0,1-.17-.5,38.2,38.2,0,0,1,.17-7.71,1.7,1.7,0,0,1,.3-.91,1.74,1.74,0,0,1,1-.49A64.56,64.56,0,0,1,69.3,50.91Z"/><path d="M150.49,76c0-17.29,7.26-26.13,18.18-26.13S186.84,58.8,186.84,76s-7.25,26.59-18.17,26.59S150.49,93.31,150.49,76Zm25.22,0c0-13.86-3.08-17-7-17s-7,3.18-7,17,3.09,17.5,7,17.5S175.71,89.89,175.71,76Z"/><path d="M196.31,92.16h11.1V62.77H197.9v-7.3a34.63,34.63,0,0,0,12.6-4.62h8.67V92.16h9.52v9.49H196.31Z"/><path d="M240.1,49.51H253l8.46,23.17c1,3.08,2,6.42,3,9.63h.32c1.05-3.21,1.93-6.55,3-9.63l8.19-23.17h12.86v52.14H278V82.52c0-5.08.95-12.67,1.51-17.72h-.32L275,77.14l-7.37,20H261l-7.38-20L249.49,64.8h-.32c.55,5,1.5,12.64,1.5,17.72v19.13H240.1Z"/><path d="M295.29,49.51h12.48l6.28,24.3c1.55,5.7,2.6,11,4.18,16.72h.32c1.58-5.76,2.69-11,4.18-16.72l6.15-24.3h12.05l-15.72,52.14H311.05Z"/><path d="M346.82,49.51h17.91c11.48,0,20.73,4.1,20.73,16.77,0,12.26-9.36,17.68-20.41,17.68h-6.44v17.69H346.82ZM364.36,74.6c6.48,0,9.55-2.89,9.55-8.32s-3.49-7.41-9.87-7.41h-5.43V74.6Z"/></g></g></svg>