<svg width="735" height="183" viewBox="0 0 735 183" fill="none" xmlns="http://www.w3.org/2000/svg">
<g clip-path="url(#clip0_3428_4542)">
<path fill-rule="evenodd" clip-rule="evenodd" d="M21.9 0L81.1 27V155.8L21.9 182.8L0 169.8V13L21.9 0ZM18.8 9.3L10.8 14L18.8 16.9V9.3ZM18.8 23.7L6.7 19.3V163.4L18.8 159V23.7ZM25.5 156.6V26.1L55.5 36.9V145.7L25.5 156.5V156.6ZM18.8 165.8L10.8 168.7L18.8 173.4V165.8ZM25.5 174.1V163.4L58.9 151.3L68.9 154.4L25.5 174.2V174.1ZM74.5 149.5L62.1 145.7V37.2L74.5 33.4V149.5ZM68.9 28.4L58.9 31.4L25.5 19.3V8.6L68.8 28.3L68.9 28.4Z" fill="white"/>
<path d="M204.8 65.3996C200.5 57.8996 194.4 52.0996 186.5 48.0996C178.6 44.0996 169.3 42.0996 158.9 42.0996H126.8V140.7H158.9C169.4 140.7 178.7 138.7 186.5 134.8C194.3 130.9 200.5 125.2 204.8 117.9C209.1 110.6 211.3 101.8 211.3 91.7996C211.3 81.7996 209.1 72.9996 204.8 65.4996V65.3996ZM185.9 118.7C179.6 125 170.5 128.3 158.9 128.3H142.3V54.5996H158.9C170.6 54.5996 179.7 57.8996 186 64.4996C192.2 70.9996 195.4 80.1996 195.4 91.7996C195.4 103.4 192.2 112.4 186 118.7H185.9Z" fill="white"/>
<path d="M279.3 66.3996C273.6 63.1996 267 61.5996 259.7 61.5996C252.4 61.5996 245.3 63.2996 239.4 66.4996C233.6 69.7996 229 74.4996 225.7 80.4996C222.5 86.4996 220.8 93.6996 220.8 101.6C220.8 109.5 222.5 116.7 225.8 122.7C229.1 128.7 233.8 133.5 239.6 136.8C245.4 140.1 252.2 141.8 259.6 141.8C267 141.8 276.4 139.5 282.5 135C288.4 130.6 292.6 124.9 295 118.1H278.5C274.8 125.4 268.4 129.1 259.6 129.1C250.8 129.1 248.1 127.1 243.8 123.2C239.5 119.3 237.1 114.1 236.6 107.7V107.1H237.1H296.9C297.2 104.9 297.4 102.3 297.4 99.5996C297.4 92.0996 295.8 85.3996 292.6 79.5996C289.4 73.8996 284.9 69.2996 279.2 66.0996L279.3 66.3996ZM281 95.2996H236.8V94.6996C237.6 88.4996 240.1 83.4996 244.2 79.8996C248.3 76.2996 253.3 74.3996 259 74.3996C264.7 74.3996 270.7 76.2996 274.9 79.9996C279.2 83.6996 281.4 88.6996 281.5 94.7996V95.2996H281Z" fill="white"/>
<path d="M324.5 27.7002H309.2V140.7H324.5V27.7002Z" fill="white"/>
<path d="M375.1 122.7L353 62.9004H336L366.8 139.7V139.9V140.1L351 177.7H366.8L414.7 62.9004H399L376.1 122.7L375.6 124L375.1 122.7Z" fill="white"/>
<path d="M468 100.6C464.4 98.9996 459.7 97.4996 454 95.9996C449.7 94.7996 446.4 93.6996 444.2 92.8996C442 92.0996 440 90.8996 438.4 89.3996C436.8 87.8996 435.9 85.9996 435.9 83.6996C435.9 81.3996 437.1 78.5996 439.6 76.7996C442 75.0996 445.4 74.2996 449.8 74.2996C454.2 74.2996 457.9 75.3996 460.6 77.5996C463.2 79.6996 464.7 82.4996 465 85.8996H480.3C479.8 78.4996 476.9 72.5996 471.7 68.2996C466.3 63.8996 459.2 61.5996 450.4 61.5996C441.6 61.5996 439.2 62.5996 434.7 64.5996C430.2 66.5996 426.7 69.2996 424.3 72.5996C421.9 75.9996 420.7 79.6996 420.7 83.7996C420.7 87.8996 422 92.8996 424.6 95.8996C427.3 98.9996 430.4 101.3 434.1 102.8C437.8 104.3 442.6 105.9 448.5 107.5C454.6 109.2 459.1 110.8 462 112.3C465 113.8 466.5 116.2 466.5 119.4C466.5 122.6 465.1 124.8 462.5 126.6C459.9 128.4 456.2 129.3 451.5 129.3C446.8 129.3 443.2 128.1 440.2 125.8C437.3 123.6 435.7 120.8 435.3 117.5H419.4C419.7 121.9 421.2 126 423.8 129.6C426.6 133.4 430.5 136.4 435.3 138.6C440.1 140.8 445.7 141.9 451.7 141.9C457.7 141.9 463 140.9 467.4 138.9C471.8 136.9 475.3 134.2 477.7 130.8C480.1 127.4 481.3 123.4 481.3 119.1C481.3 114.2 479.9 110.2 477.3 107.3C474.7 104.3 471.6 102 468 100.5V100.6Z" fill="white"/>
<path d="M501.8 27.7002C499 27.7002 496.6 28.7002 494.7 30.5002C492.8 32.4002 491.9 34.8002 491.9 37.6002C491.9 40.4002 492.9 42.8002 494.7 44.7002C496.6 46.6002 499 47.5002 501.8 47.5002C504.6 47.5002 506.8 46.5002 508.7 44.7002C510.6 42.8002 511.5 40.4002 511.5 37.6002C511.5 34.8002 510.5 32.4002 508.7 30.5002C506.8 28.6002 504.5 27.7002 501.8 27.7002Z" fill="white"/>
<path d="M509.4 62.9004H494.1V140.7H509.4V62.9004Z" fill="white"/>
<path d="M543.6 122.9C540 119.1 538.2 113.5 538.2 106.3V62.9004H523.1V108.7C523.1 115.7 524.5 121.8 527.3 126.8C530 131.7 533.9 135.5 538.7 138C543.5 140.5 549 141.8 555.1 141.8C561.2 141.8 564.1 140.9 568.1 139.1C572.2 137.3 575.5 134.8 578 131.6L578.9 130.4V140.7H594.2V62.9004H578.9V106.3C578.9 113.5 577 119 573.4 122.9C569.7 126.8 564.7 128.7 558.5 128.7C552.3 128.7 547.3 126.7 543.7 122.9H543.6Z" fill="white"/>
<path d="M719.1 65.3996C714.3 62.8996 708.8 61.5996 702.7 61.5996C696.6 61.5996 691.6 62.9996 686.6 65.7996C681.7 68.4996 678 72.2996 675.7 76.8996L675.2 77.7996L674.7 76.8996C672.1 71.9996 668.3 68.0996 663.5 65.4996C658.6 62.8996 653 61.5996 646.9 61.5996C640.8 61.5996 638 62.4996 634 64.2996C630 66.0996 626.6 68.5996 624 71.6996L623.1 72.7996V62.7996H607.8V140.6H623.1V97.0996C623.1 89.8996 625 84.3996 628.6 80.4996C632.3 76.5996 637.3 74.6996 643.5 74.6996C649.7 74.6996 654.7 76.6996 658.3 80.4996C661.9 84.3996 663.7 89.8996 663.7 97.0996V140.6H678.8V97.0996C678.8 89.8996 680.7 84.3996 684.3 80.4996C688 76.5996 693 74.6996 699.2 74.6996C705.4 74.6996 710.4 76.6996 714 80.4996C717.6 84.3996 719.4 89.8996 719.4 97.0996V140.6H734.5V94.5996C734.5 87.5996 733.1 81.4996 730.3 76.4996C727.5 71.5996 723.7 67.7996 718.9 65.2996L719.1 65.3996Z" fill="white"/>
</g>
<defs>
<clipPath id="clip0_3428_4542">
<rect width="734.6" height="182.7" fill="white"/>
</clipPath>
</defs>
</svg>
