<svg width="432" height="213" viewBox="0 0 432 213" fill="none" xmlns="http://www.w3.org/2000/svg">
<path fill-rule="evenodd" clip-rule="evenodd" d="M19.3778 40.5547L60.9372 59.4811V149.815L19.3778 168.741L4 159.633V49.6627L19.3778 40.5547ZM17.1697 47.0999L11.5706 50.4119L17.1697 52.4231V47.0999ZM17.1697 57.1939L8.6922 54.1183V155.177L17.1697 152.101V57.1939ZM21.8619 150.406V58.8895L42.878 66.4995V142.796L21.8619 150.406ZM17.1697 156.873L11.5706 158.883L17.1697 162.196V156.873ZM21.8619 162.708V155.177L45.2832 146.7L52.302 148.868L21.8619 162.748V162.708ZM56.2448 145.399L47.5704 142.717V66.6179L56.2448 63.9759V145.399ZM52.302 60.5063L45.2832 62.6355L21.8619 54.1579V46.6267L52.2624 60.4667L52.302 60.5063Z" fill="black"/>
<path d="M113.897 79.1055C119.568 79.1055 124.469 80.1755 128.598 82.3147C132.777 84.4039 135.962 87.4139 138.15 91.3443C140.389 95.2747 141.509 99.9011 141.509 105.225C141.509 110.548 140.389 115.175 138.15 119.105C135.962 122.985 132.777 125.97 128.598 128.06C124.469 130.099 119.568 131.119 113.897 131.119H97.7031V79.1055H113.897ZM113.897 125.523C120.613 125.523 125.738 123.757 129.27 120.224C132.802 116.642 134.568 111.642 134.568 105.225C134.568 98.7571 132.777 93.7075 129.195 90.0755C125.663 86.4439 120.564 84.6279 113.897 84.6279H104.494V125.523H113.897Z" fill="black"/>
<path d="M187.779 109.107C187.779 110.4 187.704 111.768 187.555 113.211H154.869C155.118 117.241 156.486 120.4 158.974 122.689C161.511 124.927 164.57 126.047 168.152 126.047C171.088 126.047 173.526 125.375 175.466 124.032C177.456 122.639 178.849 120.798 179.645 118.509H186.958C185.864 122.44 183.675 125.649 180.391 128.136C177.108 130.574 173.028 131.793 168.152 131.793C164.272 131.793 160.789 130.922 157.705 129.181C154.67 127.439 152.282 124.977 150.541 121.793C148.8 118.559 147.929 114.828 147.929 110.599C147.929 106.37 148.774 102.664 150.466 99.4799C152.158 96.2959 154.521 93.8583 157.556 92.1667C160.64 90.4255 164.172 89.5547 168.152 89.5547C172.033 89.5547 175.466 90.4007 178.451 92.0923C181.436 93.7835 183.724 96.1219 185.316 99.1067C186.958 102.042 187.779 105.375 187.779 109.107ZM180.764 107.689C180.764 105.102 180.192 102.888 179.048 101.047C177.904 99.1567 176.336 97.7387 174.346 96.7935C172.406 95.7983 170.242 95.3011 167.854 95.3011C164.421 95.3011 161.486 96.3955 159.048 98.5847C156.66 100.773 155.292 103.808 154.944 107.689H180.764Z" fill="black"/>
<path d="M203.534 75.8984V131.121H196.743V75.8984H203.534Z" fill="black"/>
<path d="M250.332 90.2266L225.705 150.375H218.69L226.75 130.674L210.257 90.2266H217.795L230.631 123.361L243.317 90.2266H250.332Z" fill="black"/>
<path d="M271.636 131.793C268.501 131.793 265.69 131.27 263.203 130.225C260.715 129.131 258.75 127.639 257.307 125.748C255.864 123.808 255.068 121.594 254.919 119.106H261.934C262.133 121.146 263.078 122.813 264.77 124.106C266.511 125.4 268.775 126.047 271.561 126.047C274.148 126.047 276.188 125.475 277.68 124.33C279.173 123.186 279.919 121.743 279.919 120.002C279.919 118.211 279.123 116.893 277.531 116.047C275.939 115.151 273.476 114.281 270.143 113.435C267.108 112.639 264.621 111.843 262.68 111.047C260.79 110.201 259.148 108.982 257.755 107.39C256.412 105.749 255.74 103.609 255.74 100.973C255.74 98.8831 256.362 96.9675 257.606 95.2263C258.85 93.4851 260.616 92.1171 262.904 91.1219C265.193 90.0771 267.805 89.5547 270.74 89.5547C275.267 89.5547 278.924 90.6991 281.71 92.9875C284.496 95.2763 285.988 98.4103 286.188 102.39H279.397C279.247 100.251 278.377 98.5347 276.785 97.2411C275.242 95.9479 273.153 95.3011 270.516 95.3011C268.078 95.3011 266.138 95.8235 264.695 96.8683C263.252 97.9127 262.531 99.2811 262.531 100.973C262.531 102.316 262.954 103.435 263.8 104.331C264.695 105.176 265.79 105.873 267.083 106.42C268.426 106.917 270.267 107.49 272.606 108.137C275.541 108.933 277.929 109.729 279.77 110.525C281.61 111.271 283.178 112.415 284.471 113.957C285.814 115.499 286.511 117.514 286.561 120.002C286.561 122.241 285.939 124.255 284.695 126.047C283.451 127.837 281.685 129.255 279.397 130.3C277.158 131.295 274.571 131.793 271.636 131.793Z" fill="black"/>
<path d="M299.655 83.5837C298.361 83.5837 297.267 83.1361 296.371 82.2405C295.476 81.3449 295.028 80.2505 295.028 78.9569C295.028 77.6637 295.476 76.5689 296.371 75.6737C297.267 74.7781 298.361 74.3301 299.655 74.3301C300.898 74.3301 301.943 74.7781 302.789 75.6737C303.684 76.5689 304.132 77.6637 304.132 78.9569C304.132 80.2505 303.684 81.3449 302.789 82.2405C301.943 83.1361 300.898 83.5837 299.655 83.5837ZM302.938 90.2253V131.12H296.147V90.2253H302.938Z" fill="black"/>
<path d="M350.78 90.2266V131.121H343.99V125.077C342.696 127.166 340.88 128.808 338.542 130.002C336.253 131.146 333.716 131.719 330.93 131.719C327.746 131.719 324.885 131.072 322.348 129.778C319.811 128.435 317.796 126.445 316.303 123.808C314.86 121.171 314.139 117.963 314.139 114.181V90.2266H320.856V113.286C320.856 117.316 321.875 120.425 323.915 122.614C325.955 124.753 328.741 125.823 332.273 125.823C335.905 125.823 338.766 124.704 340.855 122.465C342.945 120.226 343.99 116.967 343.99 112.689V90.2266H350.78Z" fill="black"/>
<path d="M411.424 89.4805C414.608 89.4805 417.444 90.1521 419.932 91.4953C422.42 92.7889 424.384 94.7541 425.828 97.3909C427.272 100.027 427.992 103.236 427.992 107.017V131.121H421.276V107.988C421.276 103.908 420.256 100.798 418.216 98.6593C416.228 96.4705 413.516 95.3757 410.084 95.3757C406.548 95.3757 403.74 96.5201 401.648 98.8085C399.56 101.047 398.515 104.306 398.515 108.584V131.121H391.799V107.988C391.799 103.908 390.779 100.798 388.739 98.6593C386.749 96.4705 384.038 95.3757 380.605 95.3757C377.072 95.3757 374.262 96.5201 372.172 98.8085C370.082 101.047 369.038 104.306 369.038 108.584V131.121H362.247V90.2265H369.038V96.1221C370.381 93.9829 372.172 92.3409 374.411 91.1969C376.699 90.0525 379.212 89.4805 381.948 89.4805C385.381 89.4805 388.416 90.2517 391.052 91.7937C393.689 93.3361 395.654 95.5997 396.948 98.5849C398.092 95.6993 399.983 93.4605 402.62 91.8685C405.256 90.2765 408.192 89.4805 411.424 89.4805Z" fill="black"/>
</svg>
