<svg width="1024" height="280" viewBox="0 0 1024 280" fill="none" xmlns="http://www.w3.org/2000/svg">
<rect width="1024" height="280" fill="black"/>
<path d="M217.745 37.8472C227.686 37.8472 237.304 41.4042 244.828 47.8556C253.55 55.3302 258.754 66.1474 259.124 77.5494C259.143 77.9977 259.143 78.4557 259.143 78.8943C259.143 80.7751 259.143 81.9153 246.143 187.983C245.305 194.785 244.711 199.648 244.496 201.412C243.259 211.635 238.893 221.136 232.207 228.153L228.719 231.408C221.517 237.411 212.571 240.666 203.089 240.666C202.621 240.666 202.143 240.666 201.666 240.646C186.726 240.14 173.239 231.379 166.485 217.764L166.407 217.608C164.712 214.022 163.035 209.695 161.077 204.696C155.385 190.098 148.301 171.932 136.304 159.936C124.288 147.92 106.084 140.816 91.4661 135.105C86.4766 133.156 82.1692 131.47 78.5926 129.784C65.037 123.021 56.3539 109.621 55.8667 94.7693C55.8472 94.3015 55.8472 93.8435 55.8472 93.405C55.8472 89.9259 56.2857 86.4566 57.1433 83.1042C61.246 67.083 75.172 54.9501 91.7975 52.9231L212.736 38.159C214.393 37.9544 216.069 37.8569 217.736 37.8569M217.745 32C215.845 32 213.925 32.1169 212.035 32.3508L91.0861 47.1149C72.1023 49.4343 56.1785 63.3116 51.4813 81.6522C50.497 85.4821 50 89.4386 50 93.405C50 93.9117 50 94.4282 50.0292 94.9642C50.5847 111.96 60.5346 127.309 75.9906 135.017L76.0491 135.047L76.1076 135.076C79.8693 136.849 84.2644 138.565 89.3514 140.553C103.472 146.068 121.033 152.929 132.182 164.068C143.311 175.197 150.142 192.729 155.639 206.811C157.637 211.927 159.352 216.332 161.125 220.103L161.155 220.162L161.184 220.22L161.262 220.376C168.97 235.91 184.378 245.928 201.481 246.503C202.017 246.523 202.562 246.532 203.098 246.532C213.984 246.532 224.138 242.859 232.48 235.91L232.607 235.803L232.724 235.686L236.213 232.431L236.339 232.314L236.456 232.187C244.009 224.265 248.93 213.584 250.314 202.123C250.529 200.359 251.123 195.506 251.961 188.704C265.01 82.2856 265.01 81.2234 265.01 78.904C265.01 78.3973 265.01 77.871 264.981 77.3643C264.562 64.3348 258.607 51.9681 248.648 43.4312C240.062 36.0735 229.089 32.0195 217.755 32.0195L217.745 32Z" fill="white"/>
<path d="M217.745 37.8472C227.686 37.8472 237.304 41.4042 244.828 47.8556C253.55 55.3302 258.754 66.1474 259.124 77.5494C259.143 77.9977 259.143 78.4557 259.143 78.8943C259.143 80.7751 259.143 81.9153 246.143 187.983C245.305 194.785 244.711 199.648 244.496 201.412C243.259 211.635 238.893 221.136 232.207 228.153L228.719 231.408C221.517 237.411 212.571 240.666 203.089 240.666C202.621 240.666 202.143 240.666 201.666 240.646C186.726 240.14 173.239 231.379 166.485 217.764L166.407 217.609C164.712 214.022 163.035 209.695 161.077 204.696C155.385 190.098 148.301 171.932 136.304 159.936C124.288 147.92 106.084 140.816 91.4661 135.105C86.4766 133.156 82.1691 131.47 78.5926 129.784C65.037 123.021 56.3539 109.621 55.8667 94.7693C55.8472 94.3015 55.8472 93.8435 55.8472 93.405C55.8472 89.9259 56.2857 86.4566 57.1433 83.1042C61.246 67.083 75.172 54.9501 91.7975 52.9231L212.736 38.159C214.393 37.9544 216.069 37.8569 217.736 37.8569" fill="black"/>
<path d="M178.755 201.26C178.755 214.975 189.916 226.107 203.583 226.107C217.25 226.107 228.452 214.935 228.452 201.26C228.452 187.586 217.29 176.414 203.583 176.414C189.88 176.414 178.755 187.586 178.755 201.26Z" fill="#00AAFF"/>
<path d="M193.645 77.8627C193.645 91.5772 204.806 102.709 218.473 102.709C232.14 102.709 243.342 91.537 243.342 77.8627C243.342 64.1883 232.18 53.0159 218.473 53.0159C204.77 53.0159 193.645 64.1883 193.645 77.8627Z" fill="#FF4053"/>
<path d="M70.2703 92.7538C70.2703 106.468 81.4318 117.601 95.139 117.601C108.846 117.601 119.968 106.428 119.968 92.7538C119.968 79.0795 108.806 67.907 95.139 67.907C81.472 67.907 70.2703 79.0795 70.2703 92.7538Z" fill="#23E476"/>
<path d="M506.887 77.3877H488.83V184.863H506.887V77.3877Z" fill="white"/>
<path d="M526.552 91.8856H570.003V184.863H588.103V91.8856H631.554V77.3877H526.552V91.8856Z" fill="white"/>
<path d="M669.275 136.942H736.946V122.618H669.275V91.712H739.681V77.3877H651.174V184.863H740.809V170.539H669.275V136.942Z" fill="white"/>
<path d="M875.328 77.3877H857.922L804.879 184.863H824.021L836.696 157.56H896.598L909.099 184.863H928.372L875.632 78.0388L875.328 77.3877ZM889.956 143.236H843.294C843.294 143.236 864.824 98.6137 866.56 94.1862C868.296 98.6137 889.956 143.236 889.956 143.236Z" fill="white"/>
<path d="M967.001 77.3877H948.944V184.863H967.001V77.3877Z" fill="white"/>
<path d="M378.446 77.3877H360.389V184.863H378.446V133.773L442.862 184.863H468.907L378.446 112.938V77.3877Z" fill="white"/>
<path d="M422.503 118.711L463.826 96.6604V77.3877H444.554L422.503 118.711Z" fill="white"/>
</svg>
