<svg width="1024" height="280" viewBox="0 0 1024 280" fill="none" xmlns="http://www.w3.org/2000/svg">
<rect width="1024" height="280" fill="white"/>
<path d="M378.446 77.3878H360.389V184.863H378.446V133.773L442.862 184.863H468.907L378.446 112.938V77.3878Z" fill="black"/>
<path d="M506.887 77.3878H488.83V184.863H506.887V77.3878Z" fill="black"/>
<path d="M526.552 91.8857H570.003V184.863H588.103V91.8857H631.554V77.3878H526.552V91.8857Z" fill="black"/>
<path d="M736.946 136.942H669.275V170.539H740.809V184.863H651.174V77.3878H739.681V91.7121H669.275V122.618H736.946V136.942Z" fill="black"/>
<path fill-rule="evenodd" clip-rule="evenodd" d="M875.328 77.3878H857.922L804.879 184.863H824.021L836.696 157.56H896.598L909.099 184.863H928.372L875.632 78.0389L875.328 77.3878ZM889.956 143.236H843.294C843.294 143.236 864.824 98.6138 866.56 94.1863C868.296 98.6138 889.956 143.236 889.956 143.236Z" fill="black"/>
<path d="M948.944 77.3878H967.001V184.863H948.944V77.3878Z" fill="black"/>
<path d="M463.826 96.6605L422.503 118.711L444.554 77.3878H463.826V96.6605Z" fill="black"/>
<path d="M230.936 228.357C237.28 221.699 241.425 212.663 242.608 202.911C242.828 201.1 243.438 196.114 244.296 189.131C257.612 80.5105 257.612 79.298 257.612 77.6216C257.612 77.2088 257.605 76.7815 257.59 76.3542C257.247 65.631 252.346 55.4556 244.146 48.4285C235.819 41.2918 224.803 37.9609 213.919 39.2867L89.8169 54.4402C74.1813 56.3504 61.084 67.7493 57.2235 82.8079C56.4127 85.9671 56 89.2323 56 92.5121C56 92.9285 56.0073 93.3558 56.0219 93.7977C56.4785 107.746 64.6451 120.343 77.3333 126.672C91.6212 133.404 120.427 141.183 137.542 158.298C154.657 175.413 162.392 204.182 169.124 218.466L169.171 218.558C175.526 231.366 188.2 239.621 202.254 240.095C202.699 240.11 203.145 240.117 203.587 240.117C213.992 240.117 223.704 235.939 230.932 228.35L230.936 228.357Z" fill="black"/>
<path d="M178.755 201.26C178.755 214.975 189.916 226.107 203.583 226.107C217.25 226.107 228.452 214.935 228.452 201.26C228.452 187.586 217.29 176.414 203.583 176.414C189.88 176.414 178.755 187.586 178.755 201.26Z" fill="#00AAFF"/>
<path d="M193.645 77.8627C193.645 91.5772 204.806 102.709 218.473 102.709C232.14 102.709 243.342 91.537 243.342 77.8627C243.342 64.1883 232.18 53.0159 218.473 53.0159C204.77 53.0159 193.645 64.1883 193.645 77.8627Z" fill="#FF4053"/>
<path d="M70.2703 92.7538C70.2703 106.468 81.4318 117.601 95.139 117.601C108.846 117.601 119.968 106.428 119.968 92.7538C119.968 79.0795 108.806 67.907 95.139 67.907C81.472 67.907 70.2703 79.0795 70.2703 92.7538Z" fill="#23E476"/>
</svg>
