<?xml version="1.0" encoding="utf-8"?>
<!-- Generator: Adobe Illustrator 27.8.1, SVG Export Plug-In . SVG Version: 6.00 Build 0)  -->
<svg version="1.1" id="Layer_1" xmlns="http://www.w3.org/2000/svg" xmlns:xlink="http://www.w3.org/1999/xlink" x="0px" y="0px"
	 viewBox="0 0 1200 255.8" style="enable-background:new 0 0 1200 255.8;" xml:space="preserve">
<style type="text/css">
	.st0{fill:#DD1438;}
	.st1{fill:#FFFFFF;}
</style>
<g id="horz_light_bg_00000117645269063310871150000016721798876104775587_">
	<g>
		<path class="st0" d="M255.9,127.9c0,70.6-57.3,127.9-127.9,127.9S0,198.5,0,127.9S57.3,0,128,0S255.9,57.3,255.9,127.9"/>
		<path class="st1" d="M201.3,66.4c-3.1-7.8-8.2-14.7-14-20.4c-6.1-5.7-13.3-10.2-20.8-13.3c-5-2-10.2-3.3-15.6-4
			c-19.1-2.8-39.2,3.1-53.8,17.7c-16.8,16.8-22.7,41.5-15.3,64.4v0.2l0,0.1c-4.7,2.9-9,6.4-12.7,10.4c-5.8,6.1-10.6,13.3-13.7,21.1
			c-3.1,7.9-4.5,16-4.5,24.6c0,8.1,1.8,16.6,5.1,24.2c3.1,7.8,8.2,14.7,14,20.4c6.1,5.7,13.3,10.2,20.8,13.3
			c7.5,3.1,15.6,4.5,23.9,4.5c-1.2,0-2.3,0-3.4-0.1c17.3,0.9,34.8-5.2,48-18.4c16.9-16.9,22.8-41.4,15.5-63.9c5-3,9.6-6.7,13.5-10.8
			c5.8-6.1,10.6-13.3,13.7-21.1c3.1-7.9,4.5-16,4.5-24.6C206.5,82.4,204.7,73.9,201.3,66.4 M146.1,70.9c-0.5-2-0.6-4.1-0.6-6.1
			c2.3,0.4,4.5,1.1,6.7,2c3.1,1.3,5.7,3.4,7.8,5.7c2,2.5,3.8,5.1,4.8,8.2c1.1,3.1,1.4,6.1,1.4,9.2c-0.4,5.9-2.9,11.4-7,15.5
			L146.1,70.9z M161,110.3c0.4-0.4,0.8-0.8,1.2-1.2c2.7-2.8,4.4-5.7,5.7-9.2c1.4-3.5,1.7-7.2,1.7-10.6c0-3.8-1-7.1-2.4-10.2
			c-1.4-3.1-3.8-5.8-6.1-8.2c-2.4-2.1-5.4-4.2-8.5-5.2c-2.2-0.8-4.6-1.1-7.1-1.3c0.1-4,1.1-7.9,3-11.5c2.8,0.6,5.5,1.4,8,2.6
			c4.8,2.1,8.5,5.2,11.9,8.5c3.1,3.8,5.8,7.8,7.5,12.3c1.7,4.5,2.4,9.1,2.4,14c0,4.9-1,9.6-3.1,13.7c-1.7,4.4-4.5,8.1-7.8,11.2
			c-1.1,1-2.3,1.9-3.5,2.7L161,110.3z M165.7,122.5c1.8-1.3,3.5-2.7,5-4.3c3.5-3.8,6.5-8.5,8.2-13.3c2.1-5.2,2.8-10.3,2.8-15.4
			s-1.3-10.2-3.4-15c-2-4.5-5.1-8.9-8.8-12.3c-3.8-3.4-7.8-6.1-12.6-7.8c-2.7-0.9-5.5-1.6-8.3-1.9c1.2-2.2,2.6-4.2,4.4-6
			c1.4-1.4,2.9-2.6,4.5-3.6c1.3,0.5,2.5,1,3.7,1.5c5.7,2.4,11.2,6.1,15.6,10.9c4.5,4.5,7.8,10.3,10.2,16c2.4,6.1,3.4,12.6,3.4,18.7
			c-0.3,6.5-1.7,12.7-4.1,18.4c-2.4,5.4-6.1,10.5-10.6,15c-2.3,2.3-4.9,4.4-7.6,6.1L165.7,122.5z M99.1,214.3c-1-0.4-2-0.8-3-1.3
			c-5.7-2.4-11.2-6.1-15.6-10.9c-4.5-4.5-7.8-10.3-10.2-16c-2.4-6.1-3.4-12.6-3.4-18.7c0.3-6.5,1.7-12.7,4.1-18.4
			c2.4-5.4,6.1-10.5,10.6-15c2.2-2.2,4.5-4.1,7-5.7l2.8,7.2c-1.6,1.2-3.1,2.5-4.5,3.9c-3.5,3.8-6.5,8.5-8.2,13.3
			c-2.1,5.1-2.8,10.3-2.8,15.3s1.3,10.2,3.4,15c2,4.5,5.1,8.9,8.8,12.3c3.8,3.4,7.8,6.1,12.6,7.8c2.4,0.9,4.9,1.4,7.5,1.8
			c-1.2,2.1-2.6,4-4.3,5.7C102.3,212.1,100.8,213.3,99.1,214.3 M101,202.1c-4.8-2.1-8.5-5.2-11.9-8.5c-3.1-3.8-5.8-7.8-7.5-12.3
			c-1.7-4.5-2.4-9.1-2.4-14s1-9.6,3.1-13.7c1.7-4.4,4.5-8.1,7.8-11.2c0.9-0.8,1.9-1.6,3-2.4l3,7.7c-0.2,0.2-0.5,0.4-0.7,0.7
			c-2.7,2.8-4.4,5.7-5.7,9.2c-1.4,3.5-1.7,7.2-1.7,10.6c0,3.8,1,7.1,2.4,10.2c1.4,3.1,3.8,5.8,6.1,8.2c2.4,2.1,5.4,4.2,8.5,5.2
			c2,0.7,4.2,1.1,6.5,1.2c-0.2,4-1.3,7.9-3.2,11.4C105.8,203.9,103.4,203.2,101,202.1 M110.9,186.6c0.4,2,0.6,4.1,0.5,6.1
			c-2.1-0.4-4.1-1-6.1-1.9c-3.1-1.3-5.7-3.4-7.8-5.7c-2-2.5-3.8-5.2-4.8-8.2c-1.1-3.1-1.4-6.1-1.4-9.2c0.4-5.6,2.7-11,6.5-15
			L110.9,186.6z M71.7,210.6c-5.8-5.8-9.9-12.6-13-20.1c-2.7-7.1-4.1-15.4-4.1-23.2c0.4-7.8,2.1-15.6,5.2-22.8
			c3.1-7.2,7.8-13.7,13.3-19.1c3.3-3.3,7-6.1,11.1-8.5l2.1,5.5c-3.2,2.1-6.2,4.5-8.8,7.3c-4.8,5.1-8.5,10.9-10.9,17.3
			c-2.4,6.4-3.4,13.3-3.4,20.1c0.4,6.7,1.7,13.6,4.5,19.7c2.8,6.1,6.8,11.9,11.6,16.3c4.8,4.5,10.5,8.2,16.6,10.6
			c0.9,0.3,1.8,0.6,2.6,0.9c-4,2.4-8.5,3.7-13.3,3.8c-1.7,0-3.4-0.1-5-0.5C77.2,215.8,74.3,213.3,71.7,210.6 M197.7,113.1
			c-3.1,7.2-7.8,13.7-13.3,19.1c-3.5,3.5-7.5,6.5-11.8,8.9l-2.1-5.4c3.5-2.2,6.7-4.7,9.5-7.7c4.8-5.1,8.5-10.9,10.9-17.3
			c2.4-6.4,3.4-13.3,3.4-20.1c-0.4-6.7-1.7-13.6-4.5-19.7c-2.8-6.1-6.8-11.9-11.6-16.3c-4.8-4.5-10.5-8.2-16.6-10.6
			c-1.1-0.4-2.3-0.8-3.5-1.2c5.8-3.5,12.7-4.5,19.1-3.1c3.1,2.2,6,4.7,8.5,7.4c5.8,5.8,9.9,12.6,13,20.1c2.7,7.1,4.1,15.4,4.1,23.2
			C202.5,98.1,200.8,106,197.7,113.1"/>
		<path class="st1" d="M338.1,211.6c-12.7-3.7-22.9-8.5-30.6-14.4l13.5-30c7.4,5.4,16.1,9.7,26.3,13c10.1,3.3,20.3,4.9,30.4,4.9
			c11.3,0,19.6-1.7,25-5c5.4-3.4,8.1-7.8,8.1-13.4c0-4.1-1.6-7.5-4.8-10.2c-3.2-2.7-7.3-4.9-12.3-6.5c-5-1.6-11.7-3.4-20.3-5.4
			c-13.1-3.1-23.8-6.2-32.2-9.3c-8.4-3.1-15.5-8.1-21.5-15c-6-6.9-9-16-9-27.5c0-10,2.7-19,8.1-27.1c5.4-8.1,13.5-14.5,24.4-19.3
			c10.9-4.7,24.2-7.1,39.9-7.1c11,0,21.7,1.3,32.2,3.9c10.5,2.6,19.6,6.4,27.5,11.3l-12.3,30.2c-15.9-9-31.8-13.5-47.6-13.5
			c-11.1,0-19.4,1.8-24.7,5.4c-5.3,3.6-8,8.4-8,14.2c0,5.9,3.1,10.3,9.2,13.1c6.1,2.9,15.5,5.7,28.1,8.5c13.1,3.1,23.8,6.2,32.2,9.3
			c8.4,3.1,15.5,8,21.5,14.7c6,6.7,9,15.8,9,27.3c0,9.8-2.7,18.8-8.2,26.9c-5.5,8.1-13.7,14.5-24.7,19.3c-11,4.7-24.3,7.1-40,7.1
			C363.9,217.1,350.8,215.3,338.1,211.6"/>
		<path class="st1" d="M497.8,196.8c-13.7-13.6-20.5-33-20.5-58.2V42.3h39.8v94.8c0,30.8,12.8,46.2,38.3,46.2
			c12.4,0,21.9-3.7,28.5-11.2c6.5-7.5,9.8-19.1,9.8-35V42.3h39.3v96.2c0,25.2-6.8,44.6-20.5,58.2c-13.7,13.6-32.8,20.4-57.3,20.4
			C530.6,217.1,511.4,210.3,497.8,196.8"/>
		<path class="st1" d="M777,49.9c11.2,5.1,19.9,12.3,25.9,21.6c6.1,9.3,9.1,20.4,9.1,33.1c0,12.6-3,23.6-9.1,33
			c-6.1,9.4-14.7,16.6-25.9,21.6c-11.2,5-24.4,7.5-39.7,7.5h-34.6v47.4h-39.8V42.3h74.4C752.5,42.3,765.7,44.9,777,49.9
			 M762.4,126.6c6.2-5.2,9.3-12.5,9.3-22c0-9.6-3.1-17.1-9.3-22.2c-6.2-5.2-15.3-7.7-27.3-7.7h-32.4v59.7h32.4
			C747,134.4,756.1,131.8,762.4,126.6"/>
		<path class="st1" d="M950.2,214.2l-33.1-47.9h-2h-34.6v47.9h-39.8V42.3h74.4c15.2,0,28.4,2.5,39.7,7.6
			c11.2,5.1,19.9,12.3,25.9,21.6c6.1,9.3,9.1,20.4,9.1,33.1c0,12.8-3.1,23.8-9.2,33c-6.1,9.3-14.9,16.3-26.1,21.2l38.5,55.2H950.2z
			 M940.1,82.5c-6.2-5.2-15.3-7.7-27.3-7.7h-32.4v59.9h32.4c11.9,0,21-2.6,27.3-7.9c6.2-5.2,9.3-12.6,9.3-22.1
			C949.5,95,946.4,87.6,940.1,82.5"/>
		<path class="st1" d="M1143,177.4h-79.8l-15.2,36.8h-40.7l76.6-171.9h39.3l76.8,171.9h-41.7L1143,177.4z M1130.5,147.2l-27.3-65.8
			l-27.3,65.8H1130.5z"/>
	</g>
</g>
</svg>
