<svg width="186" height="40" viewBox="0 0 186 40" fill="none" xmlns="http://www.w3.org/2000/svg">
<g clip-path="url(#clip0_818_383)">
<mask id="mask0_818_383" style="mask-type:luminance" maskUnits="userSpaceOnUse" x="0" y="0" width="186" height="40">
<path d="M0 0H185.882V40H0V0Z" fill="white"/>
</mask>
<g mask="url(#mask0_818_383)">
<path d="M39.627 20C39.627 31.044 30.755 40 19.814 40C8.872 40 0 31.044 0 20C0 8.956 8.872 0 19.814 0C30.755 0 39.627 8.956 39.627 20Z" fill="#DD1438"/>
<path d="M31.178 10.3779C30.703 9.15589 29.906 8.08489 29.016 7.18689C28.0775 6.30391 26.9851 5.6003 25.793 5.11089C25.0213 4.79923 24.2115 4.59173 23.385 4.49389C20.43 4.06189 17.317 4.97789 15.059 7.26189C12.452 9.89389 11.536 13.7469 12.686 17.3339V17.3689C11.9637 17.8241 11.3021 18.3691 10.717 18.9909C9.81002 19.9509 9.07502 21.0669 8.59902 22.2889C8.1326 23.5149 7.89861 24.8172 7.90902 26.1289C7.90902 27.4619 8.18602 28.7289 8.70502 29.9069C9.18102 31.1289 9.97802 32.1999 10.867 33.0979C11.8056 33.9809 12.898 34.6845 14.09 35.1739C15.257 35.6539 16.516 35.8709 17.789 35.8709C17.609 35.8709 17.432 35.8619 17.256 35.8539C18.6279 35.9285 19.9999 35.7106 21.2812 35.2148C22.5625 34.719 23.7237 33.9565 24.688 32.9779C25.9686 31.6946 26.8699 30.0826 27.2925 28.3197C27.7151 26.5567 27.6426 24.7113 27.083 22.9869C27.8531 22.5211 28.5554 21.9514 29.17 21.2939C30.077 20.3339 30.813 19.2179 31.288 17.9959C31.755 16.7699 31.9897 15.4677 31.98 14.1559C31.9813 12.8547 31.7098 11.5677 31.183 10.3779M22.636 11.0889C22.567 10.7754 22.5345 10.4549 22.539 10.1339C22.896 10.1959 23.235 10.3019 23.574 10.4439C24.05 10.6439 24.464 10.9689 24.785 11.3419C25.093 11.7289 25.366 12.1469 25.52 12.6269C25.688 13.1069 25.736 13.5869 25.736 14.0669C25.6827 14.9785 25.2991 15.8395 24.657 16.4889L22.637 11.0939L22.636 11.0889ZM24.944 17.2539C25.005 17.1959 25.067 17.1379 25.12 17.0709C25.533 16.6359 25.793 16.1739 26.009 15.6309C26.225 15.0889 26.269 14.5019 26.269 13.9739C26.269 13.3869 26.115 12.8579 25.899 12.3779C25.683 11.8979 25.318 11.4619 24.948 11.0939C24.578 10.7689 24.102 10.4439 23.627 10.2889C23.284 10.1649 22.909 10.1109 22.531 10.0849C22.5459 9.46039 22.7039 8.84765 22.993 8.29389C23.424 8.37789 23.838 8.50689 24.239 8.69389C24.974 9.01789 25.559 9.49789 26.079 10.0269C26.555 10.6139 26.986 11.2489 27.246 11.9469C27.506 12.6449 27.616 13.3739 27.616 14.1289C27.616 14.8849 27.462 15.6309 27.141 16.2669C26.8774 16.9359 26.463 17.5351 25.93 18.0179C25.7579 18.1736 25.5755 18.3176 25.384 18.4489L24.939 17.2579L24.944 17.2539ZM25.661 19.1689C25.9361 18.9633 26.1967 18.7391 26.441 18.4979C26.978 17.9109 27.453 17.1649 27.713 16.4219C28.034 15.6179 28.144 14.8139 28.144 14.0219C28.144 13.2319 27.946 12.4269 27.621 11.6849C27.3025 10.9581 26.8378 10.3045 26.256 9.76489C25.674 9.23989 25.045 8.80489 24.309 8.54189C23.8939 8.39751 23.4649 8.29631 23.029 8.23989C23.213 7.89789 23.438 7.58189 23.715 7.29789C23.931 7.07989 24.169 6.89389 24.415 6.73389C24.613 6.80389 24.807 6.88389 24.996 6.97389C25.9151 7.36479 26.7417 7.94468 27.422 8.67589C28.114 9.37389 28.633 10.2849 29.003 11.1819C29.373 12.1419 29.527 13.1469 29.527 14.1069C29.485 15.0961 29.2719 16.0705 28.897 16.9869C28.527 17.8399 27.947 18.6269 27.255 19.3249C26.8997 19.684 26.5056 20.0027 26.08 20.2749L25.661 19.1599V19.1689ZM15.354 33.5159C15.1987 33.457 15.0459 33.3916 14.896 33.3199C13.9769 32.929 13.1503 32.3491 12.47 31.6179C11.778 30.9199 11.259 30.0089 10.889 29.1069C10.5378 28.172 10.3615 27.1805 10.369 26.1819C10.4089 25.1924 10.6222 24.2176 10.999 23.3019C11.369 22.4489 11.95 21.6619 12.642 20.9649C12.9698 20.632 13.3311 20.3337 13.72 20.0749L14.147 21.1949C13.9035 21.381 13.6726 21.5831 13.456 21.7999C12.919 22.3869 12.443 23.1339 12.184 23.8759C11.862 24.6799 11.752 25.4849 11.752 26.2759C11.752 27.0659 11.95 27.8709 12.276 28.6139C12.5946 29.3407 13.0593 29.9942 13.641 30.5339C14.222 31.0579 14.851 31.4939 15.591 31.7559C15.966 31.8889 16.358 31.9819 16.75 32.0399C16.569 32.3685 16.3435 32.6707 16.08 32.9379C15.863 33.157 15.6207 33.3493 15.358 33.5109M15.653 31.5959C14.918 31.2709 14.333 30.7909 13.813 30.2619C13.337 29.6759 12.91 29.0399 12.646 28.3419C12.3927 27.6427 12.2673 26.9035 12.276 26.1599C12.276 25.4049 12.43 24.6579 12.752 24.0219C13.012 23.3419 13.442 22.7519 13.962 22.2719C14.108 22.1379 14.262 22.0179 14.42 21.9019L14.878 23.1119C14.843 23.1469 14.808 23.1779 14.773 23.2179C14.359 23.6489 14.099 24.1159 13.883 24.6579C13.667 25.1999 13.623 25.7869 13.623 26.3159C13.623 26.9059 13.777 27.4309 13.993 27.9109C14.209 28.3909 14.574 28.8269 14.944 29.1959C15.314 29.5199 15.79 29.8449 16.265 29.9999C16.582 30.1109 16.921 30.1699 17.269 30.1959C17.2412 30.8177 17.074 31.4253 16.78 31.9739C16.3915 31.8902 16.0135 31.7634 15.653 31.5959ZM17.19 29.1819C17.256 29.5019 17.278 29.8219 17.269 30.1379C16.9458 30.0727 16.6302 29.9745 16.327 29.8449C15.851 29.6449 15.437 29.3199 15.116 28.9469C14.808 28.5599 14.535 28.1419 14.381 27.6619C14.213 27.1819 14.165 26.7019 14.165 26.2219C14.2165 25.3461 14.5732 24.516 15.173 23.8759L17.19 29.1819ZM11.11 32.9289C10.202 32.0139 9.57702 30.9599 9.10102 29.7869C8.68802 28.6709 8.47102 27.3869 8.47102 26.1649C8.53302 24.9419 8.79302 23.7199 9.26902 22.6049C9.74402 21.4749 10.479 20.4669 11.325 19.6179C11.8394 19.1036 12.4162 18.6557 13.042 18.2849L13.368 19.1379C12.87 19.4669 12.408 19.8359 12.003 20.2849C11.2648 21.0659 10.6914 21.9875 10.317 22.9949C9.94702 23.9999 9.79702 25.0709 9.79702 26.1379C9.85902 27.1909 10.057 28.2579 10.488 29.2179C10.9165 30.1778 11.5267 31.0458 12.285 31.7739C13.0305 32.485 13.9048 33.0474 14.861 33.4309C14.997 33.4849 15.134 33.5289 15.271 33.5779C14.6453 33.9486 13.936 34.155 13.209 34.1779C12.9501 34.1827 12.6915 34.1559 12.439 34.0979C11.9624 33.753 11.5189 33.3647 11.114 32.9379M30.637 17.6939C30.161 18.8219 29.426 19.8309 28.58 20.6799C28.0376 21.2243 27.4249 21.6938 26.758 22.0759L26.441 21.2259C26.9808 20.888 27.4737 20.4805 27.907 20.0139C28.642 19.2219 29.227 18.3109 29.593 17.3019C29.963 16.2979 30.113 15.2269 30.113 14.1599C30.051 13.1069 29.853 12.0399 29.421 11.0799C28.5671 9.16041 26.9988 7.64919 25.049 6.86689C24.8702 6.79696 24.688 6.73621 24.503 6.68489C25.3941 6.14989 26.4568 5.97803 27.471 6.20489C27.951 6.55089 28.395 6.94189 28.791 7.36489C29.699 8.27989 30.324 9.32889 30.799 10.5069C31.213 11.6219 31.429 12.9069 31.429 14.1289C31.368 15.3509 31.108 16.5779 30.632 17.6889" fill="white"/>
<path d="M52.3661 33.0898C50.4021 32.5108 48.8221 31.7648 47.6331 30.8448L49.7241 26.1598C50.8641 27.0048 52.2211 27.6848 53.7931 28.1958C55.3651 28.7058 56.9361 28.9648 58.5081 28.9648C60.2611 28.9648 61.5511 28.7018 62.3881 28.1778C63.2241 27.6538 63.6421 26.9558 63.6421 26.0848C63.6421 25.4448 63.3961 24.9108 62.9021 24.4888C62.4091 24.0668 61.7751 23.7288 61.0001 23.4708C60.2251 23.2128 59.1821 22.9328 57.8611 22.6268C55.8311 22.1418 54.1711 21.6538 52.8811 21.1688C51.5906 20.6839 50.4451 19.8778 49.5531 18.8268C48.6281 17.7508 48.1661 16.3198 48.1661 14.5288C48.1661 12.9688 48.5841 11.5508 49.4201 10.2848C50.2571 9.01776 51.5161 8.01376 53.2031 7.27076C54.8891 6.52876 56.9501 6.15576 59.3841 6.15576C61.0841 6.15576 62.7441 6.35976 64.3641 6.76876C65.9841 7.17776 67.4071 7.76876 68.6261 8.53376L66.7241 13.2578C64.2631 11.8538 61.8061 11.1468 59.3441 11.1468C57.6191 11.1468 56.3461 11.4308 55.5231 11.9908C54.7001 12.5558 54.2861 13.2978 54.2861 14.2178C54.2861 15.1378 54.7611 15.8268 55.7121 16.2708C56.6631 16.7208 58.1161 17.1608 60.0671 17.5958C62.0971 18.0798 63.7571 18.5688 65.0471 19.0528C66.331 19.5311 67.475 20.3227 68.3751 21.3558C69.3001 22.4048 69.7621 23.8258 69.7621 25.6178C69.7746 27.1157 69.331 28.582 68.4901 29.8218C67.6401 31.0888 66.3631 32.0928 64.6681 32.8358C62.9681 33.5778 60.9031 33.9458 58.4681 33.9458C56.4017 33.9512 54.3454 33.6595 52.3621 33.0798M77.1061 30.7638C74.9881 28.6398 73.9321 25.6038 73.9321 21.6668V6.61676H80.0921V21.4358C80.0921 26.2488 82.0681 28.6528 86.0271 28.6528C87.9511 28.6528 89.4261 28.0708 90.4391 26.9068C91.4511 25.7418 91.9621 23.9198 91.9621 21.4358V6.61776H98.0471V21.6668C98.0471 25.6088 96.9861 28.6398 94.8721 30.7638C92.7551 32.8888 89.7961 33.9508 85.9921 33.9508C82.1871 33.9508 79.2281 32.8888 77.1111 30.7638M120.356 7.80876C122.091 8.59876 123.43 9.72876 124.367 11.1868C125.305 12.6438 125.776 14.3728 125.776 16.3688C125.776 18.3638 125.31 20.0618 124.367 21.5328C123.43 23.0038 122.091 24.1328 120.356 24.9108C118.622 25.6928 116.57 26.0838 114.214 26.0838H108.851V33.4938H102.691V6.61676H114.214C116.574 6.61676 118.622 7.01176 120.356 7.80676V7.80876ZM118.093 19.8038C119.057 18.9998 119.537 17.8538 119.537 16.3688C119.537 14.8838 119.057 13.7018 118.093 12.8978C117.129 12.0928 115.72 11.6878 113.871 11.6878H108.851V21.0178H113.871C115.72 21.0178 117.129 20.6128 118.093 19.8078M147.193 33.4928L142.059 26.0038H136.392V33.4938H130.232V6.61676H141.755C144.115 6.61676 146.163 7.01176 147.897 7.80676C149.632 8.59876 150.971 9.72676 151.908 11.1858C152.846 12.6428 153.317 14.3718 153.317 16.3678C153.317 18.3628 152.842 20.0878 151.891 21.5318C150.94 22.9818 149.588 24.0828 147.84 24.8518L153.811 33.4918L147.193 33.4928ZM145.634 12.8978C144.67 12.0928 143.261 11.6878 141.412 11.6878H136.392V21.0578H141.412C143.261 21.0578 144.67 20.6478 145.634 19.8308C146.598 19.0128 147.078 17.8618 147.078 16.3778C147.078 14.8928 146.598 13.7108 145.634 12.9018M177.059 27.7328H164.699L162.339 33.4928H156.025L167.892 6.61776H173.977L185.882 33.4928H179.419L177.059 27.7328ZM175.117 23.0088L170.894 12.7188L166.672 23.0088H175.117Z" fill="#1D2A3A"/>
</g>
</g>
<defs>
<clipPath id="clip0_818_383">
<rect width="186" height="40" fill="white"/>
</clipPath>
</defs>
</svg>
